<svg width="343" height="343" viewBox="0 0 343 343" fill="none" xmlns="http://www.w3.org/2000/svg">
<circle cx="171.5" cy="171.5" r="171.5" fill="white"/>
<g clip-path="url(#clip0_505_206)">
<path d="M70.51 109.085H128.355C129.905 109.085 131.227 110.089 131.683 111.55L171.295 239.803C172.298 243.089 176.902 243.089 177.95 239.849L183.147 223.646C184.104 220.679 188.206 220.36 189.619 223.144L217.972 279.877C218.383 280.744 218.474 281.748 218.109 282.661L208.856 307.718C208.354 309.087 207.032 310 205.574 310H142.122C140.663 310 139.341 309.087 138.84 307.718L67.228 113.786C66.3619 111.504 68.0485 109.085 70.51 109.085Z" fill="#2E294E"/>
<path d="M205.529 163.49L238.03 226.065C238.349 226.658 238.395 227.388 238.121 228.027L227.135 256.371C226.406 258.288 223.717 258.425 222.805 256.599L191.444 195.713C191.17 195.165 191.079 194.481 191.307 193.887L201.107 163.855C201.791 161.847 204.526 161.618 205.529 163.49Z" fill="#60993E"/>
<path d="M227.773 109.085H262.917C271.943 109.085 278.233 118.031 275.179 126.566L256.353 179.145C252.479 189.917 237.71 190.875 232.468 180.697L211.773 140.395C210.132 137.155 209.858 133.412 211.089 129.989L215.511 117.711C217.38 112.554 222.303 109.085 227.773 109.085Z" fill="#2E294E"/>
<path fill-rule="evenodd" clip-rule="evenodd" d="M161.039 34.6431C170.064 31.722 179.226 32.863 187.477 36.6057C194.816 40.3483 201.198 47.3315 204.069 56.2773C206.941 65.2231 205.756 74.3514 202.2 82.4757C197.596 90.0522 190.896 96.579 181.825 99.5C172.799 102.421 163.272 101.098 155.933 97.3549C148.047 92.9276 141.802 86.2183 138.931 77.2269C136.059 68.2811 137.153 58.8789 141.255 51.4849C144.948 43.9084 152.013 37.5641 161.039 34.6431Z" fill="#60993E"/>
</g>
<defs>
<clipPath id="clip0_505_206">
<rect width="209" height="277" fill="white" transform="translate(67 33)"/>
</clipPath>
</defs>
</svg>
