<svg width="459" height="607" viewBox="0 0 459 607" fill="none" xmlns="http://www.w3.org/2000/svg">
<path d="M7.70444 166.717H134.604C138.004 166.717 140.904 168.917 141.904 172.117L228.804 453.117C231.004 460.317 241.104 460.317 243.404 453.217L254.804 417.717C256.904 411.217 265.904 410.517 269.004 416.617L331.204 540.917C332.104 542.817 332.304 545.017 331.504 547.017L311.204 601.917C310.104 604.917 307.204 606.917 304.004 606.917H164.804C161.604 606.917 158.704 604.917 157.604 601.917L0.504441 177.017C-1.39556 172.017 2.30444 166.717 7.70444 166.717Z" fill="#2E294E"/>
<path d="M303.905 285.917L375.205 423.017C375.905 424.317 376.005 425.917 375.405 427.317L351.305 489.417C349.705 493.617 343.805 493.917 341.805 489.917L273.005 356.517C272.405 355.317 272.205 353.817 272.705 352.517L294.205 286.717C295.705 282.317 301.705 281.817 303.905 285.917Z" fill="#60993E"/>
<path d="M352.704 166.717H429.804C449.604 166.717 463.404 186.317 456.704 205.017L415.404 320.217C406.904 343.817 374.504 345.917 363.004 323.617L317.604 235.317C314.004 228.217 313.404 220.017 316.104 212.517L325.804 185.617C329.904 174.317 340.704 166.717 352.704 166.717Z" fill="#2E294E"/>
<path fill-rule="evenodd" clip-rule="evenodd" d="M206.304 3.61705C226.104 -2.78295 246.204 -0.282949 264.304 7.91705C280.404 16.1171 294.404 31.4171 300.704 51.0171C307.004 70.6171 304.404 90.6171 296.604 108.417C286.504 125.017 271.804 139.317 251.904 145.717C232.104 152.117 211.204 149.217 195.104 141.017C177.804 131.317 164.104 116.617 157.804 96.9171C151.504 77.3171 153.904 56.7171 162.904 40.5171C171.004 23.9171 186.504 10.017 206.304 3.61705Z" fill="#60993E"/>
</svg>
